# xmcd
#
# Track frame offsets:
#	150
#	19137
#	32505
#	49597
#	63645
#	85027
#	102982
#	117792
#	137730
#	156675
#	170047
#	187150
#	201210
#	222587
#	240497
#	255237
#
# Disc length: 3669 seconds
#
# Revision: 2
# Processed by: cddbd v1.5.2PL0 Copyright (c) Steve Scherf et al.
# Submitted via: audiograbber 1.83.01
#
DISCID=e50e5310
DTITLE=Trisha Yearwood - SC2096
DYEAR=1900
DGENRE=Country
TTITLE0=The Song Remembers When
TTITLE1=The Wrong Side Of Memphis
TTITLE2=Thinkin' About You
TTITLE3=XXX's and OOO's (An American Girl)
TTITLE4=Walkaway Joe
TTITLE5=You Say You Will
TTITLE6=Those Words We Said
TTITLE7=She's In Love With The Boy
TTITLE8=The Song Remembers When (Vocals)
TTITLE9=The Wrong Side Of Memphis (Vocals)
TTITLE10=Thinkin' About You (Vocals)
TTITLE11=XXX's and OOO's (An American Girl) (Vocals)
TTITLE12=Walkaway Joe (Vocals)
TTITLE13=You Say You Will (Vocals)
TTITLE14=Those Words We Said (Vocals)
TTITLE15=She's In Love With The Boy (Vocals)
EXTD=Tracks 9 - 16 Have Demonstration Vocals
EXTT0=
EXTT1=
EXTT2=
EXTT3=
EXTT4=
EXTT5=
EXTT6=
EXTT7=
EXTT8=Demonstration Vocals
EXTT9=Demonstration Vocals
EXTT10=Demonstration Vocals
EXTT11=Demonstration Vocals
EXTT12=Demonstration Vocals
EXTT13=Demonstration Vocals
EXTT14=Demonstration Vocals
EXTT15=Demonstration Vocals
PLAYORDER=
